<mxfile host="app.diagrams.net" agent="Mozilla/5.0 (Windows NT 10.0; Win64; x64) AppleWebKit/537.36 (KHTML, like Gecko) Chrome/128.0.0.0 Safari/537.36" version="24.7.15">
  <diagram name="Page-1" id="iBDs6v3_dnTy8JfgTPV6">
    <mxGraphModel dx="1691" dy="1546" grid="1" gridSize="10" guides="1" tooltips="1" connect="1" arrows="1" fold="1" page="1" pageScale="1" pageWidth="850" pageHeight="1100" math="0" shadow="0">
      <root>
        <mxCell id="0" />
        <mxCell id="1" parent="0" />
        <mxCell id="S30HmlT3fCBCeUfr8exj-2" value="" style="edgeStyle=orthogonalEdgeStyle;rounded=0;orthogonalLoop=1;jettySize=auto;html=1;" edge="1" parent="1" source="_qEw-VTvu6cOcD2FWl5k-2">
          <mxGeometry relative="1" as="geometry">
            <mxPoint x="230" y="520" as="targetPoint" />
          </mxGeometry>
        </mxCell>
        <mxCell id="S30HmlT3fCBCeUfr8exj-4" value="" style="edgeStyle=orthogonalEdgeStyle;rounded=0;orthogonalLoop=1;jettySize=auto;html=1;" edge="1" parent="1" source="_qEw-VTvu6cOcD2FWl5k-2">
          <mxGeometry relative="1" as="geometry">
            <mxPoint x="-40" y="520" as="targetPoint" />
          </mxGeometry>
        </mxCell>
        <mxCell id="S30HmlT3fCBCeUfr8exj-6" value="" style="edgeStyle=orthogonalEdgeStyle;rounded=0;orthogonalLoop=1;jettySize=auto;html=1;" edge="1" parent="1" source="_qEw-VTvu6cOcD2FWl5k-2">
          <mxGeometry relative="1" as="geometry">
            <mxPoint x="95" y="520" as="targetPoint" />
          </mxGeometry>
        </mxCell>
        <mxCell id="S30HmlT3fCBCeUfr8exj-9" value="" style="edgeStyle=orthogonalEdgeStyle;rounded=0;orthogonalLoop=1;jettySize=auto;html=1;" edge="1" parent="1" source="_qEw-VTvu6cOcD2FWl5k-2" target="S30HmlT3fCBCeUfr8exj-29">
          <mxGeometry relative="1" as="geometry">
            <mxPoint x="365" y="520" as="targetPoint" />
          </mxGeometry>
        </mxCell>
        <mxCell id="S30HmlT3fCBCeUfr8exj-13" value="" style="edgeStyle=orthogonalEdgeStyle;rounded=0;orthogonalLoop=1;jettySize=auto;html=1;" edge="1" parent="1" source="_qEw-VTvu6cOcD2FWl5k-2">
          <mxGeometry relative="1" as="geometry">
            <mxPoint x="-170" y="520" as="targetPoint" />
          </mxGeometry>
        </mxCell>
        <mxCell id="S30HmlT3fCBCeUfr8exj-15" value="" style="edgeStyle=orthogonalEdgeStyle;rounded=0;orthogonalLoop=1;jettySize=auto;html=1;strokeColor=default;" edge="1" parent="1" source="_qEw-VTvu6cOcD2FWl5k-2">
          <mxGeometry relative="1" as="geometry">
            <mxPoint x="-300" y="520" as="targetPoint" />
          </mxGeometry>
        </mxCell>
        <mxCell id="_qEw-VTvu6cOcD2FWl5k-2" value="Admin" style="shape=umlActor;verticalLabelPosition=bottom;verticalAlign=top;html=1;outlineConnect=0;" parent="1" vertex="1">
          <mxGeometry x="5" y="340" width="30" height="60" as="geometry" />
        </mxCell>
        <mxCell id="S30HmlT3fCBCeUfr8exj-17" value="Product&amp;nbsp;&lt;span style=&quot;background-color: initial;&quot;&gt;CRUD&lt;/span&gt;" style="ellipse;whiteSpace=wrap;html=1;" vertex="1" parent="1">
          <mxGeometry x="-360" y="520" width="120" height="80" as="geometry" />
        </mxCell>
        <mxCell id="S30HmlT3fCBCeUfr8exj-18" value="View order details&lt;div&gt;(Search)&lt;/div&gt;" style="ellipse;whiteSpace=wrap;html=1;" vertex="1" parent="1">
          <mxGeometry x="-230" y="520" width="120" height="80" as="geometry" />
        </mxCell>
        <mxCell id="S30HmlT3fCBCeUfr8exj-19" value="&lt;div&gt;Gallery&lt;/div&gt;CRUD" style="ellipse;whiteSpace=wrap;html=1;" vertex="1" parent="1">
          <mxGeometry x="-100" y="520" width="120" height="80" as="geometry" />
        </mxCell>
        <mxCell id="S30HmlT3fCBCeUfr8exj-20" value="Blog&lt;div&gt;CRUD&lt;/div&gt;" style="ellipse;whiteSpace=wrap;html=1;" vertex="1" parent="1">
          <mxGeometry x="35" y="520" width="120" height="80" as="geometry" />
        </mxCell>
        <mxCell id="S30HmlT3fCBCeUfr8exj-21" value="Manage User" style="ellipse;whiteSpace=wrap;html=1;" vertex="1" parent="1">
          <mxGeometry x="170" y="520" width="120" height="80" as="geometry" />
        </mxCell>
        <mxCell id="S30HmlT3fCBCeUfr8exj-22" value="Disable/Active&amp;nbsp;&lt;div&gt;Designer&lt;/div&gt;" style="ellipse;whiteSpace=wrap;html=1;" vertex="1" parent="1">
          <mxGeometry x="170" y="680" width="120" height="80" as="geometry" />
        </mxCell>
        <mxCell id="S30HmlT3fCBCeUfr8exj-25" value="&amp;lt;&amp;lt;include&amp;gt;&amp;gt;" style="html=1;verticalAlign=bottom;endArrow=open;dashed=1;endSize=8;curved=0;rounded=0;entryX=0.5;entryY=1;entryDx=0;entryDy=0;exitX=0.5;exitY=0;exitDx=0;exitDy=0;" edge="1" parent="1" source="S30HmlT3fCBCeUfr8exj-22" target="S30HmlT3fCBCeUfr8exj-21">
          <mxGeometry x="1" y="738" relative="1" as="geometry">
            <mxPoint x="230" y="700" as="sourcePoint" />
            <mxPoint x="160" y="650" as="targetPoint" />
            <mxPoint x="18" y="-160" as="offset" />
          </mxGeometry>
        </mxCell>
        <mxCell id="S30HmlT3fCBCeUfr8exj-26" value="&amp;lt;&amp;lt;exclude&amp;gt;&amp;gt;" style="html=1;verticalAlign=bottom;endArrow=open;dashed=1;endSize=8;curved=0;rounded=0;exitX=0.5;exitY=0;exitDx=0;exitDy=0;" edge="1" parent="1">
          <mxGeometry x="-1" y="-762" relative="1" as="geometry">
            <mxPoint x="-540" y="460" as="sourcePoint" />
            <mxPoint x="-540" y="400" as="targetPoint" />
            <mxPoint x="-22" y="180" as="offset" />
          </mxGeometry>
        </mxCell>
        <mxCell id="S30HmlT3fCBCeUfr8exj-29" value="View consultants" style="ellipse;whiteSpace=wrap;html=1;" vertex="1" parent="1">
          <mxGeometry x="305" y="520" width="120" height="80" as="geometry" />
        </mxCell>
        <mxCell id="S30HmlT3fCBCeUfr8exj-34" value="" style="edgeStyle=orthogonalEdgeStyle;rounded=0;orthogonalLoop=1;jettySize=auto;html=1;" edge="1" parent="1" source="S30HmlT3fCBCeUfr8exj-39">
          <mxGeometry relative="1" as="geometry">
            <mxPoint x="-70" y="990" as="targetPoint" />
          </mxGeometry>
        </mxCell>
        <mxCell id="S30HmlT3fCBCeUfr8exj-37" value="" style="edgeStyle=orthogonalEdgeStyle;rounded=0;orthogonalLoop=1;jettySize=auto;html=1;" edge="1" parent="1" source="S30HmlT3fCBCeUfr8exj-39">
          <mxGeometry relative="1" as="geometry">
            <mxPoint x="-200" y="990" as="targetPoint" />
          </mxGeometry>
        </mxCell>
        <mxCell id="S30HmlT3fCBCeUfr8exj-38" value="" style="edgeStyle=orthogonalEdgeStyle;rounded=0;orthogonalLoop=1;jettySize=auto;html=1;strokeColor=default;" edge="1" parent="1" source="S30HmlT3fCBCeUfr8exj-39">
          <mxGeometry relative="1" as="geometry">
            <mxPoint x="-330" y="990" as="targetPoint" />
          </mxGeometry>
        </mxCell>
        <mxCell id="S30HmlT3fCBCeUfr8exj-39" value="Designer" style="shape=umlActor;verticalLabelPosition=bottom;verticalAlign=top;html=1;outlineConnect=0;" vertex="1" parent="1">
          <mxGeometry x="-215" y="790" width="30" height="60" as="geometry" />
        </mxCell>
        <mxCell id="S30HmlT3fCBCeUfr8exj-40" value="Profile&lt;div&gt;(Create, Read, Update)&lt;/div&gt;" style="ellipse;whiteSpace=wrap;html=1;" vertex="1" parent="1">
          <mxGeometry x="-260" y="990" width="120" height="80" as="geometry" />
        </mxCell>
        <mxCell id="S30HmlT3fCBCeUfr8exj-41" value="Consultation&lt;div&gt;&lt;/div&gt;&lt;div&gt;Accept/Cancel&lt;/div&gt;" style="ellipse;whiteSpace=wrap;html=1;" vertex="1" parent="1">
          <mxGeometry x="-130" y="990" width="120" height="80" as="geometry" />
        </mxCell>
        <mxCell id="S30HmlT3fCBCeUfr8exj-47" value="Blog&lt;div&gt;(Create, Read)&lt;/div&gt;" style="ellipse;whiteSpace=wrap;html=1;" vertex="1" parent="1">
          <mxGeometry x="-390" y="990" width="120" height="80" as="geometry" />
        </mxCell>
        <mxCell id="S30HmlT3fCBCeUfr8exj-64" value="" style="edgeStyle=orthogonalEdgeStyle;rounded=0;orthogonalLoop=1;jettySize=auto;html=1;" edge="1" parent="1" source="S30HmlT3fCBCeUfr8exj-69">
          <mxGeometry relative="1" as="geometry">
            <mxPoint x="660" y="150" as="targetPoint" />
          </mxGeometry>
        </mxCell>
        <mxCell id="S30HmlT3fCBCeUfr8exj-65" value="" style="edgeStyle=orthogonalEdgeStyle;rounded=0;orthogonalLoop=1;jettySize=auto;html=1;" edge="1" parent="1" source="S30HmlT3fCBCeUfr8exj-69">
          <mxGeometry relative="1" as="geometry">
            <mxPoint x="795" y="150" as="targetPoint" />
          </mxGeometry>
        </mxCell>
        <mxCell id="S30HmlT3fCBCeUfr8exj-67" value="" style="edgeStyle=orthogonalEdgeStyle;rounded=0;orthogonalLoop=1;jettySize=auto;html=1;" edge="1" parent="1" source="S30HmlT3fCBCeUfr8exj-69">
          <mxGeometry relative="1" as="geometry">
            <mxPoint x="530" y="150" as="targetPoint" />
          </mxGeometry>
        </mxCell>
        <mxCell id="S30HmlT3fCBCeUfr8exj-68" value="" style="edgeStyle=orthogonalEdgeStyle;rounded=0;orthogonalLoop=1;jettySize=auto;html=1;strokeColor=default;" edge="1" parent="1" source="S30HmlT3fCBCeUfr8exj-69">
          <mxGeometry relative="1" as="geometry">
            <mxPoint x="400" y="150" as="targetPoint" />
          </mxGeometry>
        </mxCell>
        <mxCell id="S30HmlT3fCBCeUfr8exj-82" value="" style="edgeStyle=orthogonalEdgeStyle;rounded=0;orthogonalLoop=1;jettySize=auto;html=1;entryX=0.5;entryY=0;entryDx=0;entryDy=0;" edge="1" parent="1" source="S30HmlT3fCBCeUfr8exj-69" target="S30HmlT3fCBCeUfr8exj-83">
          <mxGeometry relative="1" as="geometry">
            <mxPoint x="950" y="150" as="targetPoint" />
          </mxGeometry>
        </mxCell>
        <mxCell id="S30HmlT3fCBCeUfr8exj-69" value="Customer" style="shape=umlActor;verticalLabelPosition=bottom;verticalAlign=top;html=1;outlineConnect=0;" vertex="1" parent="1">
          <mxGeometry x="580" y="-50" width="30" height="60" as="geometry" />
        </mxCell>
        <mxCell id="S30HmlT3fCBCeUfr8exj-70" value="Product&lt;div&gt;Search/Sort/Filter&lt;/div&gt;&lt;div&gt;/Review&lt;/div&gt;" style="ellipse;whiteSpace=wrap;html=1;" vertex="1" parent="1">
          <mxGeometry x="340" y="150" width="120" height="80" as="geometry" />
        </mxCell>
        <mxCell id="S30HmlT3fCBCeUfr8exj-71" value="Profile&amp;nbsp;&lt;div&gt;(Create, Read, Update)&lt;/div&gt;" style="ellipse;whiteSpace=wrap;html=1;" vertex="1" parent="1">
          <mxGeometry x="470" y="150" width="120" height="80" as="geometry" />
        </mxCell>
        <mxCell id="S30HmlT3fCBCeUfr8exj-72" value="&lt;div&gt;View, Filter, Bookmark Gallery&lt;/div&gt;" style="ellipse;whiteSpace=wrap;html=1;" vertex="1" parent="1">
          <mxGeometry x="600" y="150" width="120" height="80" as="geometry" />
        </mxCell>
        <mxCell id="S30HmlT3fCBCeUfr8exj-73" value="View Blog&lt;div&gt;(Search, Filter, Sort)&lt;/div&gt;" style="ellipse;whiteSpace=wrap;html=1;" vertex="1" parent="1">
          <mxGeometry x="735" y="150" width="120" height="80" as="geometry" />
        </mxCell>
        <mxCell id="S30HmlT3fCBCeUfr8exj-75" value="Disable/Active&amp;nbsp;&lt;div&gt;Designer&lt;/div&gt;" style="ellipse;whiteSpace=wrap;html=1;" vertex="1" parent="1">
          <mxGeometry x="870" y="330" width="120" height="80" as="geometry" />
        </mxCell>
        <mxCell id="S30HmlT3fCBCeUfr8exj-76" value="&amp;lt;&amp;lt;include&amp;gt;&amp;gt;" style="html=1;verticalAlign=bottom;endArrow=open;dashed=1;endSize=8;curved=0;rounded=0;entryX=0.5;entryY=1;entryDx=0;entryDy=0;exitX=0.5;exitY=0;exitDx=0;exitDy=0;" edge="1" parent="1" source="S30HmlT3fCBCeUfr8exj-75">
          <mxGeometry x="1" y="738" relative="1" as="geometry">
            <mxPoint x="930" y="354" as="sourcePoint" />
            <mxPoint x="930" y="254" as="targetPoint" />
            <mxPoint x="18" y="-160" as="offset" />
          </mxGeometry>
        </mxCell>
        <mxCell id="S30HmlT3fCBCeUfr8exj-83" value="Place Order" style="ellipse;whiteSpace=wrap;html=1;" vertex="1" parent="1">
          <mxGeometry x="870" y="150" width="120" height="80" as="geometry" />
        </mxCell>
      </root>
    </mxGraphModel>
  </diagram>
</mxfile>
